<?xml version="1.0" encoding="UTF-8"?><svg id="Layer_1" xmlns="http://www.w3.org/2000/svg" viewBox="0 0 1100.61 415.87"><defs><style>.cls-1{fill:#4d4d4d;}.cls-1,.cls-2,.cls-3,.cls-4,.cls-5,.cls-6,.cls-7,.cls-8,.cls-9,.cls-10,.cls-11,.cls-12,.cls-13{stroke-width:0px;}.cls-3{fill:#494949;}.cls-3,.cls-13{fill-rule:evenodd;}.cls-4{fill:#eba352;}.cls-5{fill:#ddd;}.cls-6{fill:#664e27;}.cls-7{fill:#3e4347;}.cls-8{fill:#bfbebe;}.cls-9,.cls-13{fill:#ffdd67;}.cls-10{fill:#212528;}.cls-11{fill:#42ade2;}.cls-12{fill:#f2f2f2;}</style></defs><rect class="cls-12" width="1100.61" height="415.87"/><path class="cls-2" d="m116.17,184.3h-.9v52.68c0,3.28.55,5.39,1.65,6.33,1.1.94,3.69,1.54,7.75,1.79v4.91h-24.67v-4.91c4.06-.25,6.64-.85,7.73-1.79,1.09-.95,1.63-3.06,1.63-6.33v-44.46c0-3.28-.54-5.39-1.63-6.33-1.09-.94-3.66-1.54-7.73-1.8v-4.91h30.76l15.5,47.44,14.51-47.44h31.04v4.91c-4.1.25-6.69.86-7.8,1.82-1.1.96-1.65,3.06-1.65,6.31v44.46c0,3.25.56,5.35,1.68,6.31,1.12.96,3.71,1.57,7.77,1.82v4.91h-35.67v-4.91c4.06-.25,6.64-.85,7.73-1.79,1.09-.95,1.63-3.06,1.63-6.33v-52.68h-.76l-20.03,65.72h-7.09l-21.45-65.72Z"/><path class="cls-2" d="m230.8,209.96c0-2.39-.35-3.94-1.04-4.65-.69-.71-2.17-1.09-4.44-1.16v-4.54c3.84-.22,7.44-.46,10.8-.71,3.35-.25,6.59-.54,9.71-.85v41.63c0,2.39.35,3.95,1.04,4.65.69.71,2.17,1.09,4.44,1.16l.05,4.54c-3.72.22-7.14.46-10.28.71-3.13.25-6.1.54-8.91.85v-10.77c-2.52,3.59-5.23,6.28-8.13,8.08-2.9,1.8-6,2.69-9.31,2.69-4.69,0-8.07-1.62-10.14-4.87-2.06-3.24-3.09-8.63-3.09-16.16v-20.6c0-2.39-.35-3.94-1.04-4.65-.69-.71-2.19-1.09-4.49-1.16v-4.54c3.87-.22,7.49-.46,10.84-.71,3.35-.25,6.58-.54,9.66-.85v35.34c0,3.87.39,6.52,1.16,7.94.77,1.42,2.13,2.13,4.09,2.13,2.8,0,5.02-1.42,6.64-4.28,1.62-2.85,2.43-6.78,2.43-11.79v-17.44Z"/><path class="cls-2" d="m306.02,238.78c0,2.46.35,4.13,1.04,5.01.69.88,2.05,1.48,4.06,1.79v4.44h-25.14v-4.44c1.95-.22,3.28-.76,3.97-1.63s1.04-2.59,1.04-5.17v-21.74c0-3.88-.39-6.52-1.16-7.94-.77-1.42-2.12-2.13-4.04-2.13-2.83,0-5.06,1.42-6.69,4.25-1.62,2.83-2.43,6.77-2.43,11.81v15.73c0,2.58.35,4.31,1.06,5.17.71.87,2.04,1.41,3.99,1.63v4.44h-25.09v-4.44c2.02-.31,3.36-.9,4.04-1.75.68-.85,1.02-2.54,1.02-5.06v-50.51c0-2.36-.38-3.92-1.13-4.68s-2.22-1.17-4.39-1.23v-4.39c3.09-.13,6.31-.38,9.69-.76,3.37-.38,6.98-.91,10.82-1.61v32.32c2.39-3.06,4.93-5.33,7.61-6.83,2.68-1.5,5.53-2.24,8.55-2.24,4.69,0,8.06,1.61,10.11,4.84,2.05,3.23,3.07,8.64,3.07,16.23v18.85Z"/><path class="cls-2" d="m347.18,243.46c-2.87,2.68-5.74,4.7-8.62,6.07s-5.76,2.06-8.62,2.06c-3.94,0-7.18-1.21-9.73-3.64-2.55-2.42-3.83-5.51-3.83-9.26,0-5.29,2.45-9.42,7.35-12.38,4.9-2.96,12.39-4.83,22.47-5.62v-6.95c0-4.38-.68-7.38-2.03-9-1.35-1.62-3.7-2.43-7.04-2.43-1.48,0-2.77.23-3.87.69-1.1.46-1.65.94-1.65,1.44,0,.06.09.25.28.57.09.16.16.27.19.33l1.37,2.13c.28.44.51.98.69,1.63.17.65.26,1.3.26,1.96,0,1.89-.71,3.46-2.13,4.7-1.42,1.25-3.26,1.87-5.53,1.87s-4.22-.66-5.67-1.99c-1.45-1.32-2.17-3.05-2.17-5.2,0-3.59,1.91-6.55,5.72-8.88,3.81-2.33,8.76-3.5,14.84-3.5,7.37,0,12.8,1.54,16.3,4.63,3.5,3.09,5.24,7.91,5.24,14.46v24.38c0,.88.16,1.54.47,1.96.31.42.8.64,1.46.64.44,0,1.06-.17,1.87-.52s1.35-.52,1.63-.52c.38,0,.72.17,1.02.5.3.33.45.7.45,1.11,0,1.39-1.17,2.8-3.5,4.25-2.33,1.45-4.82,2.17-7.47,2.17-2.43,0-4.43-.61-6-1.84-1.58-1.23-2.82-3.17-3.73-5.81Zm-.99-18.66c-5.01.72-8.74,2.04-11.2,3.95-2.46,1.91-3.69,4.42-3.69,7.54,0,2.14.6,3.83,1.8,5.06,1.2,1.23,2.85,1.84,4.96,1.84,2.83,0,4.93-1.11,6.28-3.33,1.35-2.22,2.03-5.66,2.03-10.32,0-.54,0-1.12-.02-1.75-.02-.63-.07-1.62-.17-2.98Z"/><path class="cls-2" d="m371.75,250.03v-4.44c2.02-.31,3.36-.9,4.04-1.75.68-.85,1.02-2.54,1.02-5.06v-28.82c0-2.36-.35-3.9-1.06-4.63-.71-.72-2.15-1.12-4.32-1.18v-4.54c3.21-.16,6.55-.36,10.02-.61,3.46-.25,7.02-.57,10.68-.95v40.73c0,2.52.34,4.21,1.02,5.06.68.85,2.01,1.43,3.99,1.75v4.44h-25.37Zm3.12-67.05c0-2.11.8-3.87,2.39-5.27,1.59-1.4,3.6-2.1,6.02-2.1s4.45.71,6.07,2.13c1.62,1.42,2.43,3.17,2.43,5.24s-.78,3.83-2.34,5.15c-1.56,1.32-3.61,1.98-6.17,1.98s-4.55-.66-6.1-1.98c-1.54-1.32-2.32-3.04-2.32-5.15Z"/><path class="cls-2" d="m432.23,250.03v-4.44c1.98-.22,3.34-.77,4.06-1.65.72-.88,1.09-2.6,1.09-5.15v-21.74c0-3.88-.39-6.52-1.18-7.94-.79-1.42-2.14-2.13-4.06-2.13-2.84,0-5.08,1.43-6.73,4.28-1.65,2.85-2.48,6.78-2.48,11.79v15.73c0,2.55.36,4.27,1.09,5.15s2.08,1.43,4.06,1.65v4.44h-25.18v-4.44c2.02-.31,3.36-.9,4.04-1.75.68-.85,1.02-2.54,1.02-5.06v-28.82c0-2.3-.36-3.83-1.09-4.58-.73-.76-2.16-1.16-4.3-1.23v-4.54c3.69-.22,7.09-.46,10.21-.71,3.12-.25,6.1-.54,8.93-.85v11.53c2.49-3.56,5.2-6.24,8.13-8.03s6.02-2.69,9.26-2.69,5.99.84,8.06,2.53c2.06,1.69,3.49,4.2,4.28,7.54,2.55-3.4,5.24-5.93,8.06-7.58,2.82-1.65,5.8-2.48,8.95-2.48,4.69,0,8.08,1.63,10.16,4.89s3.12,8.65,3.12,16.18v18.85c0,2.52.34,4.21,1.02,5.06.68.85,2.01,1.43,3.99,1.75v4.44h-25.04v-4.44c1.98-.25,3.31-.8,3.99-1.65.68-.85,1.02-2.57,1.02-5.15v-21.74c0-3.88-.39-6.52-1.16-7.94-.77-1.42-2.12-2.13-4.04-2.13-2.83,0-5.06,1.42-6.69,4.25-1.62,2.83-2.43,6.77-2.43,11.81v15.73c0,2.58.35,4.31,1.04,5.17.69.87,2.02,1.41,3.97,1.63l.05,4.44h-25.18Z"/><path class="cls-2" d="m492.28,250.03v-4.44c2.02-.31,3.36-.9,4.04-1.75.68-.85,1.02-2.54,1.02-5.06v-28.82c0-2.36-.35-3.9-1.06-4.63-.71-.72-2.15-1.12-4.32-1.18v-4.54c3.21-.16,6.55-.36,10.02-.61,3.46-.25,7.02-.57,10.68-.95v40.73c0,2.52.34,4.21,1.02,5.06.68.85,2.01,1.43,3.99,1.75v4.44h-25.37Zm3.12-67.05c0-2.11.8-3.87,2.39-5.27,1.59-1.4,3.6-2.1,6.02-2.1s4.45.71,6.07,2.13c1.62,1.42,2.43,3.17,2.43,5.24s-.78,3.83-2.34,5.15c-1.56,1.32-3.61,1.98-6.17,1.98s-4.55-.66-6.1-1.98c-1.54-1.32-2.32-3.04-2.32-5.15Z"/><path class="cls-2" d="m572.89,238.78c0,2.46.35,4.13,1.04,5.01.69.88,2.03,1.48,4.02,1.79v4.44h-25.18v-4.44c1.98-.22,3.34-.77,4.06-1.65.72-.88,1.09-2.6,1.09-5.15v-21.74c0-3.88-.39-6.52-1.18-7.94-.79-1.42-2.14-2.13-4.06-2.13-2.83,0-5.08,1.43-6.73,4.28-1.65,2.85-2.48,6.78-2.48,11.79v15.73c0,2.55.36,4.27,1.09,5.15s2.08,1.43,4.06,1.65v4.44h-25.18v-4.44c2.02-.31,3.36-.9,4.04-1.75.68-.85,1.02-2.54,1.02-5.06v-28.82c0-2.33-.36-3.86-1.09-4.58-.73-.72-2.16-1.13-4.3-1.23v-4.54c3.69-.22,7.09-.46,10.21-.71,3.12-.25,6.1-.54,8.93-.85v11.53c2.52-3.59,5.23-6.28,8.13-8.06,2.9-1.78,5.98-2.67,9.26-2.67,4.72,0,8.12,1.63,10.18,4.89s3.1,8.65,3.1,16.18v18.85Z"/><path class="cls-2" d="m604.69,250.03v-4.91c2.11-.44,3.82-1.32,5.13-2.65,1.31-1.32,2.61-3.64,3.9-6.95l21.45-56.04h11.34l20.88,57.17c1.07,2.93,2.26,4.98,3.57,6.14,1.31,1.17,3.16,1.94,5.55,2.32v4.91h-34.26v-4.91c3.05-.19,5.17-.6,6.35-1.23,1.18-.63,1.77-1.65,1.77-3.07,0-.57-.22-1.57-.66-3.02-.06-.19-.09-.3-.09-.33l-3.5-11.15h-23.06l-2.88,8.79-.09.33c-.79,2.3-1.18,3.94-1.18,4.91,0,1.42.54,2.47,1.61,3.17,1.07.69,3.02,1.23,5.86,1.61v4.91h-21.69Zm20.13-28.63h19.18l-9.03-27.69-10.16,27.69Z"/><path class="cls-2" d="m685.25,251.58h-3.97v-63.32c0-2.24-.39-3.76-1.16-4.58-.77-.82-2.21-1.26-4.32-1.32v-4.44c2.93-.03,6.09-.24,9.47-.61,3.39-.38,7.06-.95,11.03-1.7v29.91c1.89-2.55,3.95-4.43,6.19-5.65,2.24-1.21,4.74-1.82,7.51-1.82,6.27,0,11.34,2.46,15.21,7.37,3.87,4.91,5.81,11.4,5.81,19.47s-1.97,14.49-5.91,19.37c-3.94,4.88-9.14,7.32-15.59,7.32-3.09,0-5.88-.65-8.39-1.96s-4.86-3.33-7.06-6.07l-8.83,8.03Zm20.13-6.1c2.93,0,5.15-1.75,6.66-5.24,1.51-3.5,2.27-8.66,2.27-15.5s-.76-11.96-2.27-15.45c-1.51-3.5-3.73-5.24-6.66-5.24s-5.16,1.76-6.69,5.29c-1.53,3.53-2.29,8.66-2.29,15.4s.76,11.92,2.29,15.45c1.53,3.53,3.76,5.29,6.69,5.29Z"/><path class="cls-2" d="m762.46,177.64c3.97-.03,7.95-.24,11.93-.61s7.93-.91,11.84-1.61v64.26c0,2.36.34,3.89,1.02,4.58.68.69,2.09,1.04,4.23,1.04h1.32v4.72c-3.56,0-6.93.18-10.11.54-3.18.36-6.19.92-9.03,1.68v-11.62c-2.08,3.72-4.43,6.47-7.06,8.27-2.63,1.8-5.66,2.69-9.1,2.69-6.27,0-11.34-2.44-15.21-7.32-3.87-4.88-5.81-11.34-5.81-19.37s1.96-14.44,5.88-19.4,8.97-7.44,15.14-7.44c3.21,0,6.02.66,8.43,1.98,2.41,1.32,4.18,3.18,5.32,5.58v-17.62c0-2.3-.53-3.84-1.58-4.63-1.06-.79-3.17-1.18-6.36-1.18h-.9l.05-4.54Zm-.33,67.95c2.93,0,5.14-1.75,6.64-5.25,1.5-3.5,2.24-8.65,2.24-15.45s-.75-12-2.24-15.5c-1.5-3.5-3.71-5.24-6.64-5.24s-5.16,1.76-6.69,5.29c-1.53,3.53-2.29,8.68-2.29,15.45s.76,11.88,2.29,15.4c1.53,3.53,3.76,5.29,6.69,5.29Z"/><path class="cls-2" d="m796.72,250.03v-4.44c2.02-.31,3.36-.9,4.04-1.75.68-.85,1.02-2.54,1.02-5.06v-28.82c0-2.36-.35-3.9-1.06-4.63-.71-.72-2.15-1.12-4.32-1.18v-4.54c3.21-.16,6.55-.36,10.02-.61,3.46-.25,7.02-.57,10.68-.95v40.73c0,2.52.34,4.21,1.02,5.06.68.85,2.01,1.43,3.99,1.75v4.44h-25.37Zm3.12-67.05c0-2.11.79-3.87,2.39-5.27,1.59-1.4,3.6-2.1,6.02-2.1s4.45.71,6.07,2.13c1.62,1.42,2.43,3.17,2.43,5.24s-.78,3.83-2.34,5.15c-1.56,1.32-3.62,1.98-6.17,1.98s-4.55-.66-6.1-1.98c-1.54-1.32-2.32-3.04-2.32-5.15Z"/><path class="cls-2" d="m832.77,188.27c0-2.27-.39-3.8-1.16-4.61s-2.23-1.24-4.37-1.3v-4.39c3.05-.13,6.27-.38,9.64-.76,3.37-.38,7.06-.91,11.06-1.61v63.17c0,2.46.35,4.13,1.06,5.01s2.07,1.48,4.09,1.79v4.44h-25.37v-4.44c2.02-.31,3.36-.9,4.04-1.75.68-.85,1.02-2.54,1.02-5.06v-50.51Z"/><path class="cls-2" d="m863.91,188.27c0-2.27-.39-3.8-1.16-4.61s-2.23-1.24-4.37-1.3v-4.39c3.05-.13,6.27-.38,9.64-.76,3.37-.38,7.06-.91,11.06-1.61v63.17c0,2.46.35,4.13,1.06,5.01s2.07,1.48,4.09,1.79v4.44h-25.37v-4.44c2.02-.31,3.36-.9,4.04-1.75.68-.85,1.02-2.54,1.02-5.06v-50.51Z"/><path class="cls-2" d="m920.51,243.46c-2.87,2.68-5.74,4.7-8.62,6.07-2.88,1.37-5.76,2.06-8.62,2.06-3.94,0-7.18-1.21-9.73-3.64-2.55-2.42-3.83-5.51-3.83-9.26,0-5.29,2.45-9.42,7.35-12.38,4.9-2.96,12.39-4.83,22.47-5.62v-6.95c0-4.38-.68-7.38-2.03-9-1.35-1.62-3.7-2.43-7.04-2.43-1.48,0-2.77.23-3.87.69-1.1.46-1.65.94-1.65,1.44,0,.06.09.25.28.57.09.16.16.27.19.33l1.37,2.13c.28.44.51.98.69,1.63.17.65.26,1.3.26,1.96,0,1.89-.71,3.46-2.13,4.7-1.42,1.25-3.26,1.87-5.53,1.87s-4.22-.66-5.67-1.99c-1.45-1.32-2.17-3.05-2.17-5.2,0-3.59,1.91-6.55,5.72-8.88,3.81-2.33,8.76-3.5,14.84-3.5,7.37,0,12.8,1.54,16.3,4.63,3.5,3.09,5.24,7.91,5.24,14.46v24.38c0,.88.16,1.54.47,1.96.31.42.8.64,1.46.64.44,0,1.06-.17,1.87-.52.8-.35,1.35-.52,1.63-.52.38,0,.72.17,1.02.5.3.33.45.7.45,1.11,0,1.39-1.17,2.8-3.5,4.25-2.33,1.45-4.82,2.17-7.47,2.17-2.43,0-4.43-.61-6-1.84s-2.82-3.17-3.73-5.81Zm-.99-18.66c-5.01.72-8.74,2.04-11.2,3.95-2.46,1.91-3.69,4.42-3.69,7.54,0,2.14.6,3.83,1.79,5.06s2.85,1.84,4.96,1.84c2.83,0,4.93-1.11,6.28-3.33,1.35-2.22,2.03-5.66,2.03-10.32,0-.54,0-1.12-.02-1.75-.02-.63-.07-1.62-.17-2.98Z"/><path class="cls-2" d="m994.32,238.78c0,2.46.35,4.13,1.04,5.01.69.88,2.05,1.48,4.06,1.79v4.44h-25.14v-4.44c1.95-.22,3.28-.76,3.97-1.63.69-.87,1.04-2.59,1.04-5.17v-21.74c0-3.88-.39-6.52-1.16-7.94-.77-1.42-2.12-2.13-4.04-2.13-2.83,0-5.06,1.42-6.69,4.25s-2.43,6.77-2.43,11.81v15.73c0,2.58.35,4.31,1.06,5.17.71.87,2.04,1.41,3.99,1.63v4.44h-25.09v-4.44c2.02-.31,3.36-.9,4.04-1.75.68-.85,1.02-2.54,1.02-5.06v-50.51c0-2.36-.38-3.92-1.13-4.68-.76-.76-2.22-1.17-4.39-1.23v-4.39c3.09-.13,6.32-.38,9.69-.76,3.37-.38,6.98-.91,10.82-1.61v32.32c2.39-3.06,4.93-5.33,7.61-6.83,2.68-1.5,5.53-2.24,8.55-2.24,4.69,0,8.06,1.61,10.11,4.84,2.05,3.23,3.07,8.64,3.07,16.23v18.85Z"/><path class="cls-13" d="m358.49,271.31c9.32,0,16.88,7.56,16.88,16.88s-7.55,16.88-16.88,16.88-16.88-7.56-16.88-16.88,7.56-16.88,16.88-16.88"/><path class="cls-3" d="m360.65,281.7c-1.24.62-3.09.62-4.33,0-1.32-.68-2.94-1.11-4.87-1.28-1.89-.17-5.89-.16-7.89.54-.23.08-.46.18-.67.3-.12.06-.15.11-.15.34v.3c0,.56-.07.34.33.57.78.46,1.22,1.64,1.45,3.26.34,2.37,1.5,3.86,3.39,4.56,1.75.66,3.71.64,5.45-.06.95-.38,1.79-.98,2.45-1.96,1.16-1.71.81-2.78,1.41-4.25.52-1.28,1.99-1.28,2.52,0,.6,1.47.25,2.54,1.42,4.25.66.98,1.5,1.58,2.45,1.96,1.74.69,3.7.72,5.45.06,1.89-.71,3.05-2.19,3.39-4.56.24-1.63.68-2.81,1.45-3.26.4-.23.33-.02.33-.57v-.3c0-.23-.03-.28-.15-.34-.22-.11-.44-.22-.67-.3-2-.7-6-.71-7.89-.55-1.93.17-3.55.61-4.87,1.28"/><path class="cls-6" d="m365.57,293.96c-4.56,3.18-9.62,3.16-14.16,0-.55-.38-1.04.28-.67.89,1.38,2.28,4.17,4.3,7.75,4.3s6.36-2.03,7.75-4.3c.37-.61-.12-1.27-.67-.89Z"/><path class="cls-1" d="m388.69,301.29l-.54-10.55h2.23c1.07,2.82,2.37,4.97,3.9,6.45s3.23,2.21,5.1,2.21c1.38,0,2.51-.37,3.39-1.11s1.32-1.68,1.32-2.81c0-1.04-.34-1.89-1.03-2.55s-1.91-1.27-3.68-1.85l-3.85-1.3c-2.07-.68-3.68-1.72-4.82-3.11s-1.71-3.03-1.71-4.9c0-2.33.77-4.23,2.3-5.7s3.54-2.2,6.01-2.2c.54,0,1.1.06,1.7.18s1.27.31,2.05.58c.36.13.72.28,1.07.44s.54.25.56.25c.05,0,.15.02.3.05s.28.05.39.05c.3,0,.57-.12.79-.37s.39-.6.49-1.05l1.62-.02.44,8.38h-1.79c-1.02-2.19-2.15-3.82-3.39-4.9s-2.62-1.61-4.13-1.61c-1.31,0-2.37.31-3.18.92s-1.21,1.41-1.21,2.38c0,.81.35,1.55,1.05,2.22s1.68,1.2,2.94,1.59l3.88,1.23c2.44.77,4.25,1.88,5.45,3.32s1.79,3.25,1.79,5.43c0,2.48-.81,4.51-2.43,6.09s-3.7,2.36-6.26,2.36c-.62,0-1.26-.06-1.91-.18s-1.46-.35-2.43-.68c-.34-.11-.88-.31-1.62-.62s-1.28-.47-1.63-.47-.63.16-.86.49-.38.77-.44,1.32h-1.86Z"/><path class="cls-1" d="m428.57,291.1h-11.34c-.01.16-.02.34-.03.54s0,.47,0,.83c0,2.37.33,4.11.98,5.23s1.68,1.68,3.08,1.68c1.08,0,2.09-.36,3.02-1.08s1.75-1.75,2.43-3.08l1.69.6c-.74,1.85-1.81,3.24-3.22,4.17s-3.14,1.39-5.2,1.39c-1.21,0-2.34-.21-3.39-.63s-1.99-1.03-2.81-1.81c-.96-.94-1.69-2.04-2.2-3.31s-.76-2.66-.76-4.17c0-2.95.85-5.36,2.56-7.21s3.91-2.78,6.6-2.78,4.66.86,6.23,2.57,2.36,3.99,2.36,6.84v.25Zm-11.37-1.65h5.43v-.33c0-2.17-.21-3.71-.62-4.63s-1.11-1.38-2.08-1.38-1.63.45-2.03,1.36-.64,2.57-.69,4.98Z"/><path class="cls-1" d="m432.75,277.81c0-.84-.14-1.42-.43-1.71s-.83-.46-1.63-.48v-1.63c1.14-.05,2.33-.14,3.59-.28s2.62-.34,4.11-.6v23.5c0,.91.13,1.54.4,1.86s.77.55,1.52.67v1.65h-9.44v-1.65c.75-.12,1.25-.33,1.5-.65s.38-.94.38-1.88v-18.79Z"/><path class="cls-1" d="m449.98,296.6c0,.94.15,1.59.44,1.97s.79.56,1.48.56h1.11v1.65h-10.48v-1.65c.75-.12,1.25-.33,1.5-.65s.38-.94.38-1.88v-11.41h-2.16v-1.72h2.16c0-.09,0-.24-.02-.43s-.02-.34-.02-.43c0-3.06.7-5.41,2.1-7.05s3.4-2.46,6-2.46c1.59,0,2.88.38,3.86,1.13s1.47,1.74,1.47,2.94c0,.8-.25,1.43-.75,1.89s-1.17.69-2.03.69c-.74,0-1.31-.19-1.72-.58s-.62-.94-.62-1.65c0-.26.04-.5.11-.72s.18-.41.31-.56l.4-.47c.06-.08.1-.16.13-.24s.04-.16.04-.24c0-.16-.11-.31-.33-.45s-.48-.2-.77-.2c-.9,0-1.56.4-1.98,1.19s-.62,2.07-.62,3.82v3.81h4.43v1.72h-4.43v11.41Z"/><path class="cls-1" d="m454.69,293.22v-4.03h9.35v4.03h-9.35Z"/><path class="cls-1" d="m470.07,276.37h-.51c-1.91,0-3.37.65-4.38,1.94s-1.65,3.35-1.93,6.16h-1.83l.35-9.93h23.08l.4,9.93h-1.88c-.27-2.81-.91-4.87-1.92-6.16s-2.47-1.94-4.38-1.94h-.51v19.56c0,1.15.21,1.91.64,2.28s1.43.62,3,.75v1.83h-13.78v-1.83c1.57-.13,2.57-.38,3-.75s.64-1.13.64-2.28v-19.56Z"/><path class="cls-1" d="m495.79,298.34c-1.07,1-2.14,1.75-3.21,2.26s-2.14.76-3.21.76c-1.46,0-2.67-.45-3.62-1.35s-1.42-2.05-1.42-3.45c0-1.97.91-3.5,2.73-4.61s4.61-1.8,8.36-2.09v-2.58c0-1.63-.25-2.75-.76-3.35s-1.38-.91-2.62-.91c-.55,0-1.03.08-1.44.25s-.62.35-.62.54c0,.02.04.09.11.21.04.06.06.1.07.12l.51.79c.11.16.19.37.25.61s.1.48.1.73c0,.7-.26,1.29-.79,1.75s-1.21.69-2.06.69-1.57-.25-2.11-.74-.81-1.14-.81-1.93c0-1.34.71-2.44,2.13-3.3s3.26-1.3,5.52-1.3c2.74,0,4.76.57,6.06,1.72s1.95,2.94,1.95,5.38v9.07c0,.33.06.57.18.73s.3.24.54.24c.16,0,.4-.06.69-.19s.5-.19.61-.19c.14,0,.27.06.38.18s.17.26.17.41c0,.52-.43,1.04-1.3,1.58s-1.79.81-2.78.81c-.9,0-1.65-.23-2.23-.69s-1.05-1.18-1.39-2.16Zm-.37-6.94c-1.86.27-3.25.76-4.17,1.47s-1.37,1.64-1.37,2.8c0,.8.22,1.42.67,1.88s1.06.69,1.85.69c1.05,0,1.83-.41,2.34-1.24s.76-2.11.76-3.84c0-.2,0-.42,0-.65s-.03-.6-.06-1.11Z"/><path class="cls-1" d="m517.59,285.88c0-.89-.13-1.47-.39-1.73s-.81-.41-1.65-.43v-1.69c1.43-.08,2.77-.17,4.02-.26s2.45-.2,3.61-.32v15.49c0,.89.13,1.47.39,1.73s.81.41,1.65.43l.02,1.69c-1.38.08-2.66.17-3.82.26s-2.27.2-3.31.32v-4.01c-.94,1.34-1.95,2.34-3.02,3.01s-2.23,1-3.46,1c-1.75,0-3-.6-3.77-1.81s-1.15-3.21-1.15-6.01v-7.66c0-.89-.13-1.47-.39-1.73s-.81-.41-1.67-.43v-1.69c1.44-.08,2.79-.17,4.03-.26s2.45-.2,3.59-.32v13.15c0,1.44.14,2.43.43,2.95s.79.79,1.52.79c1.04,0,1.87-.53,2.47-1.59s.91-2.52.91-4.39v-6.49Z"/><path class="cls-1" d="m531.67,300.13c-1.1-.28-1.93-.71-2.5-1.27s-.84-1.27-.84-2.1c0-.71.24-1.38.72-2s1.21-1.21,2.2-1.78c-1.01-.6-1.76-1.33-2.25-2.19s-.74-1.87-.74-3.03c0-1.85.76-3.37,2.27-4.54s3.48-1.77,5.91-1.77c.82,0,1.62.08,2.39.25s1.52.42,2.25.76c.63-1.07,1.3-1.85,2-2.36s1.48-.76,2.32-.76c.73,0,1.32.19,1.77.56s.68.86.68,1.46c0,.49-.15.88-.46,1.18s-.7.44-1.2.44c-.43,0-.93-.1-1.5-.31s-.93-.31-1.1-.31c-.28,0-.52.06-.71.19s-.37.35-.54.65c.75.64,1.32,1.38,1.71,2.2s.59,1.71.59,2.65c0,1.92-.76,3.43-2.28,4.52s-3.62,1.63-6.3,1.63c-.57,0-1.1-.03-1.59-.1s-.93-.16-1.34-.29c-.53.23-.93.49-1.2.77s-.4.59-.4.91c0,.48.27.82.81,1.03s1.7.33,3.48.38c1.91.04,3.4.09,4.47.18s1.83.19,2.26.33c1.42.47,2.46,1.11,3.13,1.93s1,1.85,1,3.09c0,1.98-.93,3.54-2.79,4.69s-4.42,1.72-7.68,1.72c-2.74,0-4.97-.47-6.68-1.41s-2.57-2.13-2.57-3.57c0-1.01.37-1.81,1.11-2.41s1.94-1.05,3.6-1.37Zm-1.35,3.81c0,.94.55,1.68,1.65,2.23s2.6.83,4.5.83,3.4-.28,4.52-.83,1.67-1.3,1.67-2.22-.56-1.65-1.67-2.2-2.62-.83-4.52-.83-3.4.28-4.5.83-1.65,1.28-1.65,2.2Zm6.12-11.41c.96,0,1.73-.42,2.3-1.27s.86-2,.86-3.44-.29-2.58-.86-3.43-1.34-1.27-2.3-1.27-1.75.42-2.32,1.26-.86,1.98-.86,3.44.29,2.59.86,3.44,1.35,1.27,2.32,1.27Z"/><path class="cls-1" d="m566.56,296.6c0,.91.13,1.54.39,1.86s.76.55,1.51.67v1.65h-9.35v-1.65c.73-.08,1.22-.28,1.48-.61s.39-.96.39-1.92v-8.09c0-1.44-.14-2.43-.43-2.95s-.79-.79-1.5-.79c-1.05,0-1.88.53-2.49,1.58s-.91,2.52-.91,4.39v5.85c0,.96.13,1.6.4,1.92s.76.52,1.49.61v1.65h-9.33v-1.65c.75-.12,1.25-.33,1.5-.65s.38-.94.38-1.88v-18.79c0-.88-.14-1.46-.42-1.74s-.83-.43-1.63-.46v-1.63c1.15-.05,2.35-.14,3.6-.28s2.6-.34,4.03-.6v12.02c.89-1.14,1.83-1.98,2.83-2.54s2.06-.83,3.18-.83c1.75,0,3,.6,3.76,1.8s1.14,3.21,1.14,6.04v7.01Z"/><path class="cls-1" d="m572.32,283.68h-2.16v-1.65c1.5-.46,2.72-1.29,3.66-2.49s1.65-2.84,2.14-4.93h1.93v7.42h4.22v1.65h-4.22v10.88c0,1.23.1,2.13.31,2.7s.52.85.96.85c.49,0,.89-.38,1.2-1.14s.52-1.89.62-3.38l1.71-.02v.26c0,2.41-.49,4.27-1.48,5.57s-2.39,1.95-4.22,1.95c-1.68,0-2.87-.5-3.59-1.51s-1.08-2.7-1.08-5.08v-11.09Z"/><path class="cls-1" d="m593.96,300.78v-1.83c1.3-.12,2.14-.36,2.52-.72s.57-1.13.57-2.3v-16.54c0-1.17-.19-1.94-.57-2.3s-1.22-.6-2.52-.72v-1.83h12.41c3.9,0,6.76.49,8.56,1.47s2.71,2.52,2.71,4.61c0,1.59-.63,2.87-1.89,3.84s-3.22,1.67-5.88,2.1c3.19.48,5.52,1.3,7,2.47s2.21,2.77,2.21,4.81c0,2.31-.98,4.04-2.95,5.2s-4.91,1.74-8.82,1.74h-13.34Zm9.6-21.6v6.49h1.78c1.99,0,3.45-.37,4.39-1.1s1.4-1.88,1.4-3.44-.4-2.77-1.2-3.62-1.92-1.28-3.38-1.28c-1.14,0-1.92.19-2.35.58s-.64,1.18-.64,2.37Zm0,8.28v8.28c0,1.37.21,2.25.64,2.64s1.27.58,2.54.58c1.71,0,3.04-.48,3.98-1.45s1.42-2.33,1.42-4.1c0-1.99-.54-3.48-1.62-4.46s-2.71-1.48-4.9-1.48h-2.06Z"/><path class="cls-1" d="m633.02,298.34c-1.07,1-2.14,1.75-3.21,2.26s-2.14.76-3.21.76c-1.46,0-2.67-.45-3.62-1.35s-1.42-2.05-1.42-3.45c0-1.97.91-3.5,2.73-4.61s4.61-1.8,8.36-2.09v-2.58c0-1.63-.25-2.75-.76-3.35s-1.38-.91-2.62-.91c-.55,0-1.03.08-1.44.25s-.62.35-.62.54c0,.02.04.09.11.21.04.06.06.1.07.12l.51.79c.11.16.19.37.25.61s.1.48.1.73c0,.7-.26,1.29-.79,1.75s-1.21.69-2.06.69-1.57-.25-2.11-.74-.81-1.14-.81-1.93c0-1.34.71-2.44,2.13-3.3s3.26-1.3,5.52-1.3c2.74,0,4.76.57,6.06,1.72s1.95,2.94,1.95,5.38v9.07c0,.33.06.57.18.73s.3.24.54.24c.16,0,.4-.06.69-.19s.5-.19.61-.19c.14,0,.27.06.38.18s.17.26.17.41c0,.52-.43,1.04-1.3,1.58s-1.79.81-2.78.81c-.9,0-1.65-.23-2.23-.69s-1.05-1.18-1.39-2.16Zm-.37-6.94c-1.86.27-3.25.76-4.17,1.47s-1.37,1.64-1.37,2.8c0,.8.22,1.42.67,1.88s1.06.69,1.85.69c1.05,0,1.83-.41,2.34-1.24s.76-2.11.76-3.84c0-.2,0-.42,0-.65s-.03-.6-.06-1.11Z"/><path class="cls-1" d="m659.32,296.72c-.98,1.54-2.16,2.7-3.52,3.49s-2.89,1.19-4.56,1.19c-2.71,0-4.91-.91-6.61-2.73s-2.55-4.19-2.55-7.09.9-5.5,2.7-7.35,4.17-2.78,7.13-2.78c2.07,0,3.79.52,5.14,1.55s2.03,2.31,2.03,3.85c0,.89-.27,1.6-.82,2.13s-1.27.79-2.17.79c-.79,0-1.43-.22-1.92-.66s-.75-1.01-.75-1.71c0-.38.08-.73.24-1.07s.4-.66.71-.95l.6-.56c.09-.08.17-.17.22-.27s.08-.2.08-.31c0-.26-.26-.51-.78-.76s-1.13-.37-1.82-.37c-1.5,0-2.6.62-3.3,1.85s-1.05,3.18-1.05,5.84.38,4.81,1.12,6.14,1.91,2,3.48,2c.84,0,1.69-.26,2.53-.79s1.69-1.31,2.55-2.36l1.32.95Z"/><path class="cls-1" d="m668.46,296.6c0,.96.13,1.6.4,1.92s.76.52,1.49.61v1.65h-9.33v-1.65c.75-.12,1.25-.33,1.5-.65s.38-.94.38-1.88v-18.79c0-.84-.14-1.42-.43-1.71s-.83-.46-1.63-.48v-1.63c1.15-.05,2.35-.14,3.6-.28s2.6-.34,4.03-.6v17.49l5.12-4.5c.19-.16.34-.35.45-.56s.17-.4.17-.58c0-.36-.18-.64-.54-.83s-.98-.34-1.86-.43v-1.65h9.28v1.65c-.74.09-1.4.27-2,.53s-1.19.63-1.78,1.12l-3.53,2.92,5.84,8.93c.41.64.8,1.11,1.18,1.4s.8.47,1.27.55v1.65h-9.76l.02-1.65c.55-.06.95-.16,1.2-.29s.38-.33.38-.57c0-.13-.03-.26-.08-.39s-.14-.28-.25-.44l-3.92-5.91-1.16,1v4.06Z"/><path class="cls-1" d="m682.63,293.22v-4.03h9.35v4.03h-9.35Z"/><path class="cls-1" d="m694.4,300.78v-1.83c1.3-.12,2.14-.36,2.52-.72s.57-1.13.57-2.3v-16.54c0-1.17-.19-1.94-.57-2.3s-1.22-.6-2.52-.72v-1.83h24.57l.54,8.82h-2.02c-.46-2.47-1.41-4.26-2.87-5.35s-3.59-1.64-6.42-1.64c-1.76,0-2.9.18-3.43.54s-.79,1.19-.79,2.49v6.86h1.58c1.52,0,2.67-.42,3.44-1.25s1.23-2.16,1.4-3.97h1.79v12.34h-1.79c-.16-1.82-.63-3.14-1.4-3.97s-1.91-1.25-3.44-1.25h-1.58v7.79c0,1.31.27,2.14.8,2.5s1.72.53,3.56.53c3.05,0,5.31-.6,6.79-1.81s2.38-3.19,2.72-5.94h2.02l-.58,9.58h-24.91Z"/><path class="cls-1" d="m741.25,296.6c0,.91.13,1.54.39,1.86s.76.55,1.49.67v1.65h-9.37v-1.65c.74-.08,1.24-.29,1.51-.62s.4-.97.4-1.92v-8.09c0-1.44-.15-2.43-.44-2.95s-.8-.79-1.51-.79c-1.05,0-1.89.53-2.5,1.59s-.92,2.52-.92,4.39v5.85c0,.95.13,1.59.4,1.92s.77.53,1.51.62v1.65h-9.37v-1.65c.75-.12,1.25-.33,1.5-.65s.38-.94.38-1.88v-10.72c0-.87-.13-1.44-.4-1.71s-.8-.42-1.6-.46v-1.69c1.37-.08,2.64-.17,3.8-.26s2.27-.2,3.32-.32v4.29c.94-1.34,1.95-2.33,3.02-3s2.23-.99,3.45-.99c1.76,0,3.02.61,3.79,1.82s1.15,3.22,1.15,6.02v7.01Z"/><path class="cls-1" d="m754.75,273.85c1.48-.01,2.96-.09,4.44-.23s2.95-.34,4.4-.6v23.91c0,.88.13,1.45.38,1.71s.78.39,1.57.39h.49v1.76c-1.32,0-2.58.07-3.76.2s-2.3.34-3.36.62v-4.32c-.77,1.38-1.65,2.41-2.63,3.08s-2.11,1-3.38,1c-2.33,0-4.22-.91-5.66-2.72s-2.16-4.22-2.16-7.21.73-5.37,2.19-7.22,3.34-2.77,5.63-2.77c1.2,0,2.24.25,3.14.74s1.56,1.18,1.98,2.07v-6.56c0-.86-.2-1.43-.59-1.72s-1.18-.44-2.36-.44h-.33l.02-1.69Zm-.12,25.28c1.09,0,1.91-.65,2.47-1.95s.83-3.22.83-5.75-.28-4.46-.83-5.77-1.38-1.95-2.47-1.95-1.92.66-2.49,1.97-.85,3.23-.85,5.75.28,4.42.85,5.73,1.4,1.97,2.49,1.97Z"/><path class="cls-1" d="m777.07,300.78v-1.83c1.3-.13,2.14-.38,2.52-.74s.57-1.12.57-2.29v-16.54c0-1.16-.19-1.92-.57-2.29s-1.22-.61-2.52-.74v-1.83h12.59c4.8,0,8.48,1.12,11.02,3.37s3.81,5.49,3.81,9.73-1.27,7.51-3.81,9.76-6.22,3.38-11.02,3.38h-12.59Zm9.6-21.39v16.49c0,1.31.22,2.15.67,2.52s1.34.55,2.69.55c2.7,0,4.59-.83,5.7-2.49s1.65-4.6,1.65-8.83-.55-7.15-1.65-8.8-3-2.47-5.7-2.47c-1.35,0-2.24.18-2.69.55s-.67,1.19-.67,2.47Z"/><path class="cls-1" d="m824.76,291.1h-11.34c-.01.16-.02.34-.03.54s0,.47,0,.83c0,2.37.33,4.11.98,5.23s1.68,1.68,3.08,1.68c1.08,0,2.09-.36,3.02-1.08s1.75-1.75,2.43-3.08l1.69.6c-.74,1.85-1.81,3.24-3.22,4.17s-3.14,1.39-5.2,1.39c-1.21,0-2.34-.21-3.39-.63s-1.99-1.03-2.81-1.81c-.96-.94-1.69-2.04-2.2-3.31s-.76-2.66-.76-4.17c0-2.95.85-5.36,2.56-7.21s3.91-2.78,6.6-2.78,4.66.86,6.23,2.57,2.36,3.99,2.36,6.84v.25Zm-11.37-1.65h5.43v-.33c0-2.17-.21-3.71-.62-4.63s-1.11-1.38-2.08-1.38-1.63.45-2.03,1.36-.64,2.57-.69,4.98Z"/><path class="cls-1" d="m834.2,301.36l-5.7-14.59c-.5-1.28-.94-2.09-1.32-2.45s-.87-.56-1.48-.61l-.04-1.69h10.18v1.69c-.73.02-1.24.11-1.54.27s-.45.42-.45.78c.01.15.03.29.04.41s.04.23.08.31l3.55,9.86,3.5-9.14c.07-.19.12-.37.16-.54s.05-.35.05-.51c0-.46-.17-.8-.51-1.02s-.93-.36-1.76-.42l-.04-1.69h7.03v1.69c-.68.11-1.23.36-1.65.76s-.81,1.05-1.16,1.94l-6.01,14.94h-2.95Z"/><path class="cls-1" d="m864.12,291.1h-11.34c-.01.16-.02.34-.03.54s0,.47,0,.83c0,2.37.33,4.11.98,5.23s1.68,1.68,3.08,1.68c1.08,0,2.09-.36,3.02-1.08s1.75-1.75,2.43-3.08l1.69.6c-.74,1.85-1.81,3.24-3.22,4.17s-3.14,1.39-5.2,1.39c-1.21,0-2.34-.21-3.39-.63s-1.99-1.03-2.81-1.81c-.96-.94-1.69-2.04-2.2-3.31s-.76-2.66-.76-4.17c0-2.95.85-5.36,2.56-7.21s3.91-2.78,6.6-2.78,4.66.86,6.23,2.57,2.36,3.99,2.36,6.84v.25Zm-11.37-1.65h5.43v-.33c0-2.17-.21-3.71-.62-4.63s-1.11-1.38-2.08-1.38-1.63.45-2.03,1.36-.64,2.57-.69,4.98Z"/><path class="cls-1" d="m868.31,277.81c0-.84-.14-1.42-.43-1.71s-.83-.46-1.63-.48v-1.63c1.14-.05,2.33-.14,3.59-.28s2.62-.34,4.11-.6v23.5c0,.91.13,1.54.4,1.86s.77.55,1.52.67v1.65h-9.44v-1.65c.75-.12,1.25-.33,1.5-.65s.38-.94.38-1.88v-18.79Z"/><path class="cls-1" d="m887.13,301.36c-1.22,0-2.36-.21-3.41-.63s-2-1.04-2.83-1.86c-.95-.94-1.67-2.04-2.17-3.3s-.75-2.64-.75-4.14c0-2.95.85-5.36,2.56-7.21s3.91-2.78,6.6-2.78,4.9.93,6.61,2.78,2.57,4.25,2.57,7.21c0,1.49-.25,2.87-.76,4.13s-1.24,2.37-2.2,3.3c-.84.83-1.79,1.46-2.83,1.87s-2.17.62-3.39.62Zm0-1.69c1.08,0,1.83-.57,2.26-1.71s.64-3.32.64-6.53-.21-5.43-.64-6.57-1.18-1.72-2.26-1.72-1.85.57-2.28,1.72-.64,3.34-.64,6.57.21,5.39.64,6.53,1.19,1.71,2.28,1.71Z"/><path class="cls-1" d="m905.73,304.46c0,1.02.17,1.69.5,2s1,.47,2,.47h.42v1.69h-10.41v-1.69c.76-.12,1.27-.33,1.53-.65s.39-.93.39-1.83v-18.58c0-.86-.14-1.42-.41-1.71s-.82-.43-1.64-.46v-1.69c1.1-.05,2.24-.12,3.4-.21s2.41-.22,3.74-.37v3.57c.61-1.17,1.39-2.06,2.33-2.66s2.02-.91,3.24-.91c2.33,0,4.22.91,5.67,2.74s2.17,4.24,2.17,7.24-.73,5.33-2.19,7.17-3.34,2.76-5.65,2.76c-1.2,0-2.24-.25-3.12-.74s-1.54-1.18-1.96-2.07v5.91Zm3.39-5.36c1.09,0,1.91-.65,2.47-1.95s.83-3.22.83-5.77-.28-4.45-.83-5.75-1.38-1.95-2.47-1.95-1.94.66-2.5,1.97-.85,3.22-.85,5.73.28,4.44.85,5.75,1.4,1.97,2.5,1.97Z"/><path class="cls-1" d="m938.39,291.1h-11.34c-.01.16-.02.34-.03.54s0,.47,0,.83c0,2.37.33,4.11.98,5.23s1.68,1.68,3.08,1.68c1.08,0,2.09-.36,3.02-1.08s1.75-1.75,2.43-3.08l1.69.6c-.74,1.85-1.81,3.24-3.22,4.17s-3.14,1.39-5.2,1.39c-1.21,0-2.34-.21-3.39-.63s-1.99-1.03-2.81-1.81c-.96-.94-1.69-2.04-2.2-3.31s-.76-2.66-.76-4.17c0-2.95.85-5.36,2.56-7.21s3.91-2.78,6.6-2.78,4.66.86,6.23,2.57,2.36,3.99,2.36,6.84v.25Zm-11.37-1.65h5.43v-.33c0-2.17-.21-3.71-.62-4.63s-1.11-1.38-2.08-1.38-1.63.45-2.03,1.36-.64,2.57-.69,4.98Z"/><path class="cls-1" d="m940.74,300.78v-1.65c.75-.12,1.25-.33,1.5-.65s.38-.94.38-1.88v-10.72c0-.91-.13-1.5-.38-1.75s-.79-.39-1.63-.41v-1.69c1.37-.08,2.64-.17,3.8-.26s2.27-.2,3.32-.32v4.36c.64-1.37,1.39-2.39,2.25-3.06s1.83-1,2.94-1,2.01.33,2.72.98,1.06,1.47,1.06,2.47c0,.86-.27,1.54-.8,2.07s-1.23.78-2.08.78c-.68,0-1.25-.19-1.7-.57s-.68-.85-.68-1.42c0-.06,0-.13.02-.2s.03-.16.05-.25l.18-.76s.02-.08.03-.12,0-.11,0-.18c0-.16-.05-.29-.16-.39s-.26-.14-.46-.14c-.71,0-1.38.7-2,2.09s-.92,3.13-.92,5.2v5.29c0,.94.15,1.59.44,1.97s.79.56,1.48.56h.9v1.65h-10.27Z"/><path class="cls-10" d="m970.28,300.45h27.78c.42,0,.77-.35.77-.78v-18.58c0-.43-.34-.78-.77-.78h-27.78c-.42,0-.77.35-.77.78v18.58c0,.43.34.78.77.78Z"/><path class="cls-10" d="m967.29,303.18c0,.94.76,1.87,1.69,1.87h30.38c.87,0,1.69-.93,1.69-1.87h-33.75Z"/><polygon class="cls-5" points="998.23 300.45 970.1 300.45 967.29 303.18 1001.04 303.18 998.23 300.45"/><polygon class="cls-8" points="997.3 300.67 971.05 300.67 970.11 301.82 998.23 301.82 997.3 300.67"/><polygon class="cls-10" points="987.06 302.32 981.29 302.32 980.85 302.9 987.49 302.9 987.06 302.32"/><rect class="cls-7" x="971.23" y="282" width="25.87" height="16.75"/><path class="cls-5" d="m984.17,280.74c.24,0,.44.2.44.44s-.2.44-.44.44-.44-.2-.44-.44.2-.44.44-.44Z"/><path class="cls-7" d="m986.59,304.4h-4.86c-.17,0-.61,0-.61-.57h6.08c0,.57-.45.57-.61.57Z"/><path class="cls-1" d="m121.48,114.46v3.05c-2.15.22-3.54.62-4.16,1.22-.63.6-.94,1.87-.94,3.82v11.48h14.94v-11.48c0-1.95-.31-3.23-.92-3.82-.62-.6-2.01-1-4.17-1.22v-3.05h21.12v3.05c-2.17.2-3.57.6-4.2,1.2-.63.61-.95,1.89-.95,3.84v27.57c0,1.95.32,3.23.95,3.84.63.61,2.04,1.01,4.2,1.2v3.05h-21.12v-3.05c2.17-.21,3.56-.62,4.17-1.22.62-.6.92-1.87.92-3.82v-12.63h-14.94v12.63c0,1.95.31,3.23.94,3.82.62.6,2.01,1,4.16,1.22v3.05h-21.09v-3.05c2.17-.19,3.57-.6,4.2-1.2.63-.6.95-1.88.95-3.84v-27.57c0-1.93-.32-3.2-.95-3.81-.63-.6-2.04-1.02-4.2-1.23v-3.05h21.09Z"/><path class="cls-1" d="m151.1,158.2v-2.75c1.25-.19,2.08-.56,2.5-1.08.42-.53.63-1.57.63-3.13v-17.87c0-1.46-.22-2.42-.66-2.87-.44-.45-1.33-.69-2.68-.73v-2.81c1.99-.1,4.06-.22,6.21-.38,2.15-.16,4.35-.35,6.62-.59v25.25c0,1.56.21,2.61.63,3.13.42.53,1.25.89,2.48,1.08v2.75h-15.73Zm1.93-41.57c0-1.31.49-2.4,1.48-3.27.99-.87,2.23-1.3,3.74-1.3s2.76.44,3.76,1.32c1.01.88,1.51,1.96,1.51,3.25s-.48,2.37-1.45,3.19-2.24,1.23-3.82,1.23-2.82-.41-3.78-1.23c-.96-.82-1.44-1.88-1.44-3.19Z"/><path class="cls-1" d="m170.64,164.26c1.76-.68,3.19-1.52,4.31-2.5,1.11-.99,1.67-1.87,1.67-2.65,0-.37-.64-.76-1.93-1.17-.37-.12-.65-.21-.85-.26-.84-.27-1.48-.74-1.93-1.39-.45-.65-.67-1.45-.67-2.39,0-1.46.45-2.65,1.36-3.56s2.08-1.36,3.5-1.36c1.66,0,2.99.57,4,1.7,1.01,1.13,1.51,2.65,1.51,4.54,0,2.6-.93,4.93-2.8,6.99-1.87,2.06-4.39,3.53-7.57,4.41l-.59-2.34Z"/><path class="cls-11" d="m215.36,152.64c-.44-.09-.87-.22-1.3-.37-.42-.14-.84-.32-1.25-.51-.82-.38-1.61-.85-2.35-1.39-1.48-1.08-2.76-2.48-3.69-4.09-.93-1.62-1.48-3.44-1.6-5.26-.06-.91-.03-1.82.1-2.71.07-.44.15-.88.27-1.32.11-.43.25-.86.42-1.27l.12,1.32c.04.43.09.86.15,1.28.11.84.26,1.67.45,2.48.39,1.61.98,3.13,1.78,4.54.8,1.41,1.83,2.7,3,3.9.59.6,1.21,1.17,1.87,1.73.33.28.66.55,1,.83l1.04.83Z"/><path class="cls-11" d="m215.1,156.04c-.32.15-.65.26-.99.35-.33.1-.68.17-1.03.22-.69.11-1.4.15-2.11.11-1.43-.07-2.86-.46-4.14-1.16-1.28-.7-2.4-1.69-3.2-2.87-.41-.59-.73-1.21-.99-1.86-.12-.33-.23-.66-.31-.99-.08-.33-.14-.67-.17-1.02.24.26.46.52.68.77.22.25.44.5.66.74.44.48.89.93,1.35,1.35.92.84,1.9,1.55,2.96,2.13,1.06.57,2.2,1.01,3.42,1.36.61.17,1.23.32,1.88.46.32.07.65.13.98.2.33.06.67.13,1.01.2Z"/><path class="cls-11" d="m236.24,110.49c.45.12.89.27,1.32.44.43.17.85.37,1.26.58.83.43,1.61.94,2.34,1.52,1.46,1.16,2.7,2.63,3.56,4.3.86,1.67,1.32,3.52,1.34,5.36.01.92-.08,1.83-.26,2.71-.1.44-.21.88-.35,1.31-.14.43-.31.84-.5,1.25l-.05-1.32c-.02-.44-.04-.87-.08-1.3-.06-.85-.17-1.69-.32-2.5-.31-1.64-.82-3.19-1.57-4.65-.74-1.46-1.72-2.81-2.85-4.07-.57-.63-1.18-1.24-1.82-1.84-.32-.3-.65-.59-.99-.89l-1.02-.89Z"/><path class="cls-11" d="m244.46,110.06c.33.09.65.21.97.35.31.14.62.29.92.47.6.35,1.15.76,1.66,1.23,1.02.93,1.85,2.11,2.36,3.41.52,1.3.71,2.72.55,4.08-.08.68-.24,1.34-.47,1.97-.12.32-.25.62-.41.92-.15.3-.33.58-.53.86-.01-.34,0-.66,0-.98,0-.32,0-.64-.02-.95-.02-.62-.06-1.23-.13-1.83-.15-1.19-.42-2.31-.84-3.39-.42-1.08-1-2.11-1.69-3.12-.35-.5-.72-1-1.12-1.5-.2-.25-.4-.5-.61-.75-.21-.25-.42-.51-.63-.78Z"/><path class="cls-9" d="m209.67,124.03c-1.85.88-2.55,3.07-1.66,4.94l11.82,24.69,6.55-3.13-11.82-24.69c-.89-1.86-3.04-2.69-4.89-1.81Z"/><path class="cls-9" d="m240.74,143.67l6.97-3.33-13.48-28.17c-.9-1.89-3.21-2.72-5.13-1.8h-.02c-1.92.93-2.72,3.24-1.79,5.18l13.45,28.11Z"/><path class="cls-4" d="m229.1,110.38h-.02c-.21.11-.4.23-.58.36,1.76-.48,3.68.35,4.49,2.03l13.48,28.16,1.24-.59-13.48-28.17c-.9-1.89-3.21-2.72-5.13-1.8Z"/><path class="cls-9" d="m226.38,150.53l7.18-3.43-13.75-28.74c-.96-2.01-3.34-2.87-5.32-1.92h-.01c-1.98.95-2.8,3.35-1.84,5.35l13.76,28.74Z"/><path class="cls-4" d="m214.48,116.44h-.01c-.21.11-.4.23-.58.36,1.83-.51,3.82.36,4.68,2.15l8.56,17.88,2.1,1.21-9.42-19.69c-.96-2.01-3.34-2.87-5.32-1.92Z"/><path class="cls-9" d="m232.44,144.77l7.18-3.43-13.75-28.74c-.96-2.01-3.34-2.87-5.32-1.92h-.01c-1.98.95-2.81,3.34-1.85,5.35l13.75,28.74Z"/><path class="cls-4" d="m220.55,110.68h-.01c-.21.11-.4.23-.58.36,1.83-.51,3.82.36,4.68,2.15l9.68,20.22,2.1,1.21-10.54-22.02c-.96-2.01-3.34-2.87-5.32-1.92Z"/><path class="cls-4" d="m209.67,124.03c-.21.1-.41.22-.59.36,1.68-.43,3.45.4,4.24,2.05l7.02,14.68,2.11,1.21-7.89-16.48c-.89-1.86-3.05-2.69-4.89-1.81Z"/><path class="cls-9" d="m257.25,121.28c-2.54-1.95-6.7.19-8.74,6.97-1.42,4.73-1.57,6.07-4.59,7.5l-1.66-3.46s-26.59,12.84-25.59,14.94c0,0,3.22,9.92,8.61,14.54,8.03,6.89,26.86-.49,27.72-18.33.5-10.52,7.03-20.02,4.25-22.16Z"/><path class="cls-4" d="m257.25,121.28c-.48-.37-1.02-.59-1.6-.66.12.07.24.14.35.23,2.78,2.14-.08,7.15-1.71,11.62-1.31,3.6-2.39,7.24-2.22,10.79.75,15.46-14.83,22.9-24.22,20.11,9.18,3.89,26.25-3.51,25.46-19.68-.18-3.55.86-7,2.22-10.78,1.6-4.49,4.49-9.49,1.71-11.62Z"/><path class="cls-4" d="m244.82,135.28c-5.79.64-14.39,8.96-8.36,18.09-4.38-9.15,2.82-15.4,7.39-17.58.55-.26.98-.51.98-.51Z"/><path class="cls-1" d="m279.38,122.54c0-1.95-.32-3.23-.95-3.84-.63-.6-2.04-1.01-4.2-1.2v-3.05h21.09v3.05c-2.13.18-3.51.56-4.15,1.16-.63.6-.95,1.89-.95,3.88v27.57c0,1.99.32,3.29.95,3.88.63.6,2.02.98,4.15,1.16v3.05h-21.09v-3.05c2.17-.19,3.57-.6,4.2-1.2.63-.6.95-1.88.95-3.84v-27.57Z"/><path class="cls-1" d="m300.12,129.81c1.74-.72,3.16-1.62,4.28-2.68,1.11-1.06,1.67-2.01,1.67-2.83,0-.41-.72-.87-2.17-1.38l-.7-.23c-.8-.27-1.42-.77-1.86-1.48-.44-.71-.66-1.57-.66-2.56,0-1.56.44-2.83,1.33-3.81.89-.98,2.07-1.46,3.53-1.46,1.58,0,2.9.61,3.94,1.83,1.04,1.22,1.57,2.77,1.57,4.64,0,2.95-.91,5.52-2.74,7.72-1.83,2.2-4.37,3.76-7.63,4.7l-.56-2.46Z"/><path class="cls-1" d="m333.17,158.2v-2.75c1.23-.14,2.07-.48,2.52-1.03.45-.55.67-1.61.67-3.19v-13.48c0-2.4-.24-4.04-.73-4.92-.49-.88-1.33-1.32-2.52-1.32-1.76,0-3.15.88-4.17,2.65-1.03,1.77-1.54,4.2-1.54,7.31v9.76c0,1.58.22,2.65.67,3.19.45.55,1.29.89,2.52,1.03v2.75h-15.62v-2.75c1.25-.19,2.08-.56,2.5-1.08.42-.53.63-1.57.63-3.13v-17.87c0-1.43-.22-2.37-.67-2.84-.45-.47-1.34-.72-2.67-.76v-2.81c2.29-.14,4.39-.28,6.33-.44,1.93-.16,3.78-.33,5.54-.53v7.15c1.54-2.21,3.22-3.87,5.04-4.98s3.73-1.67,5.74-1.67,3.72.52,5,1.57c1.28,1.04,2.16,2.6,2.65,4.67,1.58-2.11,3.25-3.68,5-4.7,1.75-1.03,3.6-1.54,5.55-1.54,2.91,0,5.01,1.01,6.3,3.03s1.93,5.37,1.93,10.03v11.69c0,1.56.21,2.61.63,3.13.42.53,1.25.89,2.48,1.08v2.75h-15.53v-2.75c1.23-.16,2.06-.5,2.48-1.03.42-.53.63-1.59.63-3.19v-13.48c0-2.4-.24-4.04-.72-4.92-.48-.88-1.31-1.32-2.5-1.32-1.76,0-3.14.88-4.15,2.64-1.01,1.76-1.51,4.2-1.51,7.32v9.76c0,1.6.21,2.67.64,3.21.43.54,1.25.87,2.46,1.01l.03,2.75h-15.62Z"/></svg>